<svg width="172" height="49" fill="none" xmlns="http://www.w3.org/2000/svg"><path d="M8.298 6.273h9.353l8.336 21.398h-6.675l-1.623-4.248H8.146l-1.657 4.248H0L8.298 6.273zm7.769 12.774l-2.715-8.366h-.907l-2.702 8.366h6.324zm11.043-1.768c0-7.056 5.435-11.464 13.555-11.464 3.812 0 7.353 1.024 9.543 2.652l-2.3 3.926a12.76 12.76 0 00-6.777-1.977c-4.452 0-7.392 2.551-7.392 6.863s2.94 6.642 7.13 6.642a11.33 11.33 0 003.845-.67v-4.14h-4.66v-3.544h10.489V25.4c-2.605 1.696-6.222 2.749-10.166 2.749-8.73 0-13.267-4.248-13.267-10.87zM55.52 6.498a90.376 90.376 0 0110.167-.704c7.053 0 11.161 2.685 11.161 7.792 0 3.002-1.694 5.333-4.6 6.643l5.43 7.442h-7.145l-4.338-6.229h-.377c-1.207 0-2.448-.064-3.694-.128v6.357H55.52V6.498zm6.604 3.865v6.514c1.253.124 2.511.187 3.77.189 2.542 0 4.452-1.205 4.452-3.383 0-2.62-1.813-3.512-4.638-3.512a35.646 35.646 0 00-3.584.192zm18.028 6.611c0-6.675 4.753-11.18 12.789-11.18 8.035 0 12.784 4.184 12.784 11.18 0 6.996-4.715 11.175-12.784 11.175-8.07 0-12.789-4.183-12.789-11.175zm18.973 0c0-4.344-2.186-6.643-6.184-6.643-4 0-6.185 2.46-6.185 6.643 0 4.42 2.186 6.638 6.185 6.638 3.998 0 6.18-2.234 6.18-6.638h.004zm10.526-10.701h6.977l9.429 13.662V6.273h6.036V27.67h-6.828l-9.582-13.731v13.73h-6.032V6.274zm27.593 0h6.6V27.67h-6.6V6.273zm17.668 10.202l-7.925-10.202h7.544l4.948 6.546 4.409-6.546h7.019l-7.468 10.411L172 27.67h-7.544l-5.469-7.41-5.223 7.41h-6.997l8.145-11.195zM149.8 0h-7.57l2.808 3.613h7.485L149.8 0z" fill="#DF1683"/><path d="M90.102 37.262h3.639l3.262 8.322h-2.597l-.631-1.651H90.06l-.682 1.651h-2.542l3.266-8.322zm3.025 4.967l-1.06-3.255h-.35l-1.06 3.255h2.47zm4.723-4.669c0-.695.525-1.157 1.377-1.157.851 0 1.381.462 1.381 1.157 0 .695-.53 1.153-1.381 1.153-.852 0-1.377-.458-1.377-1.153zm.144 1.876h2.465v6.148h-2.465v-6.148zm4.274 2.548a13.093 13.093 0 00-.279-2.447l2.215-.201c.136.35.22.67.309.968a2.856 2.856 0 011.012-.763 3.006 3.006 0 011.263-.265c.262 0 .524.028.779.084v1.728a5.175 5.175 0 00-.847-.077 3.396 3.396 0 00-1.995.547v4.018h-2.465l.008-3.592zm9.984 0a13.177 13.177 0 00-.279-2.447l2.215-.201c.102.285.191.546.263.804a3.386 3.386 0 012.321-.856c1.161 0 1.864.333 2.232.956a3.179 3.179 0 011.081-.718c.41-.165.851-.246 1.296-.238 1.923 0 2.567.904 2.567 2.531v3.778h-2.466v-3.464c0-.973-.279-1.294-.982-1.294a1.501 1.501 0 00-.666.168 1.413 1.413 0 00-.508.443v4.147h-2.465v-3.464c0-.973-.28-1.294-.983-1.294a1.532 1.532 0 00-.673.167 1.437 1.437 0 00-.517.444c.008.085.008.171 0 .257v3.89h-2.436v-3.609zm13 1.936c0-1.33 1.483-2.037 3.978-2.037h.775v-.092c0-.747-.423-1.033-1.377-1.033a7.947 7.947 0 00-2.482.487l-.47-1.367a10.351 10.351 0 013.389-.582c2.173 0 3.287.78 3.287 2.37v2.126c.022.58.095 1.157.22 1.724l-2.156.201a6.056 6.056 0 01-.263-.76 4.135 4.135 0 01-2.38.804c-1.542-.028-2.521-.623-2.521-1.84zm3.228.523a2.498 2.498 0 001.47-.462v-.956h-.631c-1.148 0-1.838.148-1.838.771.021.406.444.647.999.647zm4.829 2.259c0-.595.453-1.117 1.271-1.451a1.143 1.143 0 01-.588-.382 1.046 1.046 0 01-.234-.639c0-.402.208-.92.97-1.378a1.715 1.715 0 01-.646-.619 1.596 1.596 0 01-.226-.844c0-1.314 1.351-2.121 3.583-2.121a7.476 7.476 0 011.758.184c.189-.426.507-.79.913-1.045a2.58 2.58 0 011.37-.39l.542 1.206-1.732.684c.258.152.472.365.62.617.148.252.226.536.227.825 0 1.33-1.233 2.086-3.567 2.086a7.384 7.384 0 01-1.571-.149.468.468 0 00-.185.153.432.432 0 00-.078.22c0 .286.352.374 2.067.403 2.877.036 3.893.634 3.893 1.812 0 1.579-1.881 2.471-4.774 2.471-2.643.008-3.613-.771-3.613-1.643zm3.889.361c1.22 0 2.041-.273 2.041-.803s-.512-.607-2.118-.647c-.364 0-.703-.024-1.025-.06-.457.224-.72.51-.72.803.017.506.78.707 1.822.707zm1.571-5.714c0-.498-.423-.804-1.292-.804-.868 0-1.249.31-1.249.804 0 .494.423.832 1.249.832.826 0 1.292-.31 1.292-.832zm4.079-3.789c0-.695.53-1.157 1.381-1.157s1.377.462 1.377 1.157c0 .695-.526 1.153-1.377 1.153s-1.381-.458-1.381-1.153zm.148 1.876h2.466v6.148h-2.466v-6.148zm3.843 3.107c0-2.05 1.614-3.267 3.948-3.267a5.653 5.653 0 012.821.695l-.661 1.418a3.765 3.765 0 00-1.893-.534c-1.271 0-1.822.683-1.822 1.607 0 1.02.678 1.628 1.995 1.628a4.202 4.202 0 001.809-.434l.525 1.43a5.89 5.89 0 01-2.715.631c-2.508.028-4.007-1.177-4.007-3.174z" fill="#A9ABC7"/></svg>