<svg width="277" height="53" viewBox="0 0 277 53" fill="none" xmlns="http://www.w3.org/2000/svg">
<path d="M268.665 6.66992H272.667L267.389 21.1699C266.635 23.2579 265.63 24.7659 264.373 25.6939C263.136 26.6413 261.589 27.0666 259.733 26.9699V23.4899C260.738 23.5093 261.531 23.2966 262.111 22.8519C262.71 22.4073 263.184 21.6919 263.532 20.7059L257.587 6.66992H261.676L265.446 16.4139L268.665 6.66992Z" fill="#F1EFE9"/>
<path d="M256.262 10.2659H252.985V16.2979C252.985 16.8005 253.11 17.1679 253.362 17.3999C253.613 17.6319 253.98 17.7672 254.464 17.8059C254.947 17.8252 255.546 17.8155 256.262 17.7769V21.1699C253.69 21.4599 251.873 21.2182 250.81 20.4449C249.766 19.6715 249.244 18.2892 249.244 16.2979V10.2659H246.721V6.66986H249.244V3.74086L252.985 2.60986V6.66986H256.262V10.2659Z" fill="#F1EFE9"/>
<path d="M242.658 4.92985C242.04 4.92985 241.498 4.70752 241.034 4.26285C240.59 3.79885 240.367 3.25751 240.367 2.63885C240.367 2.02018 240.59 1.47885 241.034 1.01485C241.498 0.550849 242.04 0.318848 242.658 0.318848C243.296 0.318848 243.838 0.550849 244.282 1.01485C244.746 1.47885 244.978 2.02018 244.978 2.63885C244.978 3.25751 244.746 3.79885 244.282 4.26285C243.838 4.70752 243.296 4.92985 242.658 4.92985ZM240.802 21.1698V6.66985H244.543V21.1698H240.802Z" fill="#F1EFE9"/>
<path d="M233.638 21.17V0H237.379V21.17H233.638Z" fill="#F1EFE9"/>
<path d="M226.504 6.67016H230.245V21.1702H226.504V19.4592C225.383 20.8705 223.807 21.5762 221.777 21.5762C219.844 21.5762 218.181 20.8415 216.789 19.3722C215.417 17.8835 214.73 16.0662 214.73 13.9202C214.73 11.7742 215.417 9.96649 216.789 8.49716C218.181 7.00849 219.844 6.26416 221.777 6.26416C223.807 6.26416 225.383 6.96983 226.504 8.38116V6.67016ZM219.602 16.8782C220.356 17.6322 221.313 18.0092 222.473 18.0092C223.633 18.0092 224.59 17.6322 225.344 16.8782C226.118 16.1048 226.504 15.1188 226.504 13.9202C226.504 12.7215 226.118 11.7452 225.344 10.9912C224.59 10.2178 223.633 9.83116 222.473 9.83116C221.313 9.83116 220.356 10.2178 219.602 10.9912C218.848 11.7452 218.471 12.7215 218.471 13.9202C218.471 15.1188 218.848 16.1048 219.602 16.8782Z" fill="#F1EFE9"/>
<path d="M213.3 10.2659H210.023V16.2979C210.023 16.8005 210.148 17.1679 210.4 17.3999C210.651 17.6319 211.018 17.7672 211.502 17.8059C211.985 17.8252 212.584 17.8155 213.3 17.7769V21.1699C210.728 21.4599 208.911 21.2182 207.848 20.4449C206.804 19.6715 206.282 18.2892 206.282 16.2979V10.2659H203.759V6.66986H206.282V3.74086L210.023 2.60986V6.66986H213.3V10.2659Z" fill="#F1EFE9"/>
<path d="M199.696 4.92985C199.078 4.92985 198.536 4.70752 198.072 4.26285C197.628 3.79885 197.405 3.25751 197.405 2.63885C197.405 2.02018 197.628 1.47885 198.072 1.01485C198.536 0.550849 199.078 0.318848 199.696 0.318848C200.334 0.318848 200.876 0.550849 201.32 1.01485C201.784 1.47885 202.016 2.02018 202.016 2.63885C202.016 3.25751 201.784 3.79885 201.32 4.26285C200.876 4.70752 200.334 4.92985 199.696 4.92985ZM197.84 21.1698V6.66985H201.581V21.1698H197.84Z" fill="#F1EFE9"/>
<path d="M188.126 6.26416C190.079 6.26416 191.742 7.00849 193.115 8.49716C194.507 9.96649 195.202 11.7742 195.202 13.9202C195.202 16.0662 194.507 17.8835 193.115 19.3722C191.742 20.8415 190.079 21.5762 188.126 21.5762C186.096 21.5762 184.53 20.8705 183.428 19.4592V26.9702H179.688V6.67016H183.428V8.38116C184.53 6.96983 186.096 6.26416 188.126 6.26416ZM184.56 16.8782C185.314 17.6322 186.27 18.0092 187.43 18.0092C188.59 18.0092 189.547 17.6322 190.301 16.8782C191.075 16.1048 191.462 15.1188 191.462 13.9202C191.462 12.7215 191.075 11.7452 190.301 10.9912C189.547 10.2178 188.59 9.83116 187.43 9.83116C186.27 9.83116 185.314 10.2178 184.56 10.9912C183.806 11.7452 183.428 12.7215 183.428 13.9202C183.428 15.1188 183.806 16.1048 184.56 16.8782Z" fill="#F1EFE9"/>
<path d="M169.658 10.7882C169.658 11.1748 169.909 11.4938 170.412 11.7452C170.934 11.9772 171.562 12.1898 172.297 12.3832C173.031 12.5572 173.766 12.7892 174.501 13.0792C175.235 13.3498 175.854 13.8138 176.357 14.4712C176.879 15.1285 177.14 15.9502 177.14 16.9362C177.14 18.4248 176.579 19.5752 175.458 20.3872C174.356 21.1798 172.973 21.5762 171.311 21.5762C168.333 21.5762 166.303 20.4258 165.221 18.1252L168.469 16.2982C168.894 17.5548 169.841 18.1832 171.311 18.1832C172.645 18.1832 173.312 17.7675 173.312 16.9362C173.312 16.5495 173.051 16.2402 172.529 16.0082C172.026 15.7568 171.407 15.5345 170.673 15.3412C169.938 15.1478 169.203 14.9062 168.469 14.6162C167.734 14.3262 167.106 13.8718 166.584 13.2532C166.081 12.6152 165.83 11.8225 165.83 10.8752C165.83 9.44449 166.352 8.32316 167.396 7.51116C168.459 6.67983 169.774 6.26416 171.34 6.26416C172.519 6.26416 173.592 6.53483 174.559 7.07616C175.525 7.59816 176.289 8.35216 176.85 9.33816L173.66 11.0782C173.196 10.0922 172.422 9.59916 171.34 9.59916C170.856 9.59916 170.45 9.70549 170.122 9.91816C169.812 10.1308 169.658 10.4208 169.658 10.7882Z" fill="#F1EFE9"/>
<path d="M161.654 19.3722C160.165 20.8415 158.348 21.5762 156.202 21.5762C154.056 21.5762 152.239 20.8415 150.75 19.3722C149.281 17.8835 148.546 16.0662 148.546 13.9202C148.546 11.7742 149.281 9.96649 150.75 8.49716C152.239 7.00849 154.056 6.26416 156.202 6.26416C158.348 6.26416 160.165 7.00849 161.654 8.49716C163.143 9.96649 163.887 11.7742 163.887 13.9202C163.887 16.0662 163.143 17.8835 161.654 19.3722ZM153.389 16.7912C154.143 17.5452 155.081 17.9222 156.202 17.9222C157.323 17.9222 158.261 17.5452 159.015 16.7912C159.769 16.0372 160.146 15.0802 160.146 13.9202C160.146 12.7602 159.769 11.8032 159.015 11.0492C158.261 10.2952 157.323 9.91816 156.202 9.91816C155.081 9.91816 154.143 10.2952 153.389 11.0492C152.654 11.8032 152.287 12.7602 152.287 13.9202C152.287 15.0802 152.654 16.0372 153.389 16.7912Z" fill="#F1EFE9"/>
<path d="M141.73 0.870117H145.702V21.1701H141.73V12.7601H134.189V21.1701H130.188V0.870117H134.189V8.93212H141.73V0.870117Z" fill="#F1EFE9"/>
<path d="M116.981 6.66992H120.983L115.705 21.1699C114.951 23.2579 113.946 24.7659 112.689 25.6939C111.452 26.6413 109.905 27.0666 108.049 26.9699V23.4899C109.055 23.5093 109.847 23.2966 110.427 22.8519C111.027 22.4073 111.5 21.6919 111.848 20.7059L105.903 6.66992H109.992L113.762 16.4139L116.981 6.66992Z" fill="#F1EFE9"/>
<path d="M99.1636 6.26416C100.749 6.26416 102.054 6.79583 103.079 7.85916C104.123 8.92249 104.645 10.3918 104.645 12.2672V21.1702H100.904V12.7312C100.904 11.7645 100.643 11.0298 100.121 10.5272C99.5986 10.0052 98.9026 9.74416 98.0326 9.74416C97.0659 9.74416 96.2926 10.0438 95.7126 10.6432C95.1326 11.2425 94.8426 12.1415 94.8426 13.3402V21.1702H91.1016V6.67016H94.8426V8.29416C95.7512 6.94083 97.1916 6.26416 99.1636 6.26416Z" fill="#F1EFE9"/>
<path d="M65.2245 6.26416C66.8872 6.26416 68.2115 6.80549 69.1975 7.88816C70.2028 8.97083 70.7055 10.4208 70.7055 12.2382V21.1702H66.9645V12.4992C66.9645 11.6292 66.7518 10.9525 66.3265 10.4692C65.9012 9.98583 65.3018 9.74416 64.5285 9.74416C63.6778 9.74416 63.0108 10.0245 62.5275 10.5852C62.0635 11.1458 61.8315 11.9578 61.8315 13.0212V21.1702H58.0905V12.4992C58.0905 11.6292 57.8778 10.9525 57.4525 10.4692C57.0272 9.98583 56.4278 9.74416 55.6545 9.74416C54.8232 9.74416 54.1562 10.0245 53.6535 10.5852C53.1702 11.1458 52.9285 11.9578 52.9285 13.0212V21.1702H49.1875V6.67016H52.9285V8.20716C53.7985 6.91183 55.1422 6.26416 56.9595 6.26416C58.7382 6.26416 60.0528 6.96016 60.9035 8.35216C61.8702 6.96016 63.3105 6.26416 65.2245 6.26416Z" fill="#F1EFE9"/>
<path d="M42.5916 9.16388C42.9396 8.23588 43.5099 7.53988 44.3026 7.07588C45.1146 6.61188 46.0136 6.37988 46.9996 6.37988V10.5559C45.8589 10.4205 44.8343 10.6526 43.9256 11.2519C43.0363 11.8512 42.5916 12.8469 42.5916 14.2389V21.1699H38.8506V6.66988H42.5916V9.16388Z" fill="#F1EFE9"/>
<path d="M31.7174 6.67016H35.4584V21.1702H31.7174V19.4592C30.596 20.8705 29.0204 21.5762 26.9904 21.5762C25.057 21.5762 23.3944 20.8415 22.0024 19.3722C20.6297 17.8835 19.9434 16.0662 19.9434 13.9202C19.9434 11.7742 20.6297 9.96649 22.0024 8.49716C23.3944 7.00849 25.057 6.26416 26.9904 6.26416C29.0204 6.26416 30.596 6.96983 31.7174 8.38116V6.67016ZM24.8154 16.8782C25.5694 17.6322 26.5264 18.0092 27.6864 18.0092C28.8464 18.0092 29.8034 17.6322 30.5574 16.8782C31.3307 16.1048 31.7174 15.1188 31.7174 13.9202C31.7174 12.7215 31.3307 11.7452 30.5574 10.9912C29.8034 10.2178 28.8464 9.83116 27.6864 9.83116C26.5264 9.83116 25.5694 10.2178 24.8154 10.9912C24.0614 11.7452 23.6844 12.7215 23.6844 13.9202C23.6844 15.1188 24.0614 16.1048 24.8154 16.8782Z" fill="#F1EFE9"/>
<path d="M13.127 0.870117H17.1V21.1701H13.127V12.7601H5.58696V21.1701H1.58496V0.870117H5.58696V8.93212H13.127V0.870117Z" fill="#F1EFE9"/>
<path d="M274.986 38.1699H276.066L271.746 49.0899C271.359 50.0766 270.812 50.8499 270.106 51.4099C269.399 51.9833 268.626 52.2366 267.786 52.1699V51.2299C268.426 51.2833 268.999 51.0966 269.506 50.6699C270.026 50.2566 270.446 49.6633 270.766 48.8899L270.986 48.3499L266.386 38.1699H267.466L271.506 47.0699L274.986 38.1699Z" fill="#F1EFE9"/>
<path d="M261.152 37.9497C262.339 37.9497 263.279 38.3164 263.972 39.0497C264.679 39.7697 265.032 40.7364 265.032 41.9497V48.1697H264.012V41.9497C264.012 41.0164 263.752 40.2764 263.232 39.7297C262.726 39.183 262.006 38.9097 261.072 38.9097C260.046 38.9097 259.206 39.2497 258.552 39.9297C257.899 40.6097 257.572 41.5964 257.572 42.8897V48.1697H256.572V38.1697H257.572V40.0697C258.292 38.6564 259.486 37.9497 261.152 37.9497Z" fill="#F1EFE9"/>
<path d="M252.481 38.1697H253.501V48.1697H252.481V45.9097C252.054 46.683 251.468 47.2897 250.721 47.7297C249.974 48.1697 249.128 48.3897 248.181 48.3897C246.754 48.3897 245.534 47.8897 244.521 46.8897C243.508 45.8764 243.001 44.6364 243.001 43.1697C243.001 41.703 243.508 40.4697 244.521 39.4697C245.534 38.4564 246.754 37.9497 248.181 37.9497C249.128 37.9497 249.974 38.1697 250.721 38.6097C251.468 39.0497 252.054 39.6564 252.481 40.4297V38.1697ZM245.241 46.1897C246.068 47.0164 247.074 47.4297 248.261 47.4297C249.448 47.4297 250.448 47.0164 251.261 46.1897C252.074 45.363 252.481 44.3564 252.481 43.1697C252.481 41.983 252.074 40.9764 251.261 40.1497C250.448 39.323 249.448 38.9097 248.261 38.9097C247.074 38.9097 246.068 39.323 245.241 40.1497C244.428 40.9764 244.021 41.983 244.021 43.1697C244.021 44.3564 244.428 45.363 245.241 46.1897Z" fill="#F1EFE9"/>
<path d="M236.091 37.9497C237.531 37.9497 238.751 38.4564 239.751 39.4697C240.764 40.4697 241.271 41.703 241.271 43.1697C241.271 44.6364 240.764 45.8764 239.751 46.8897C238.751 47.8897 237.531 48.3897 236.091 48.3897C235.144 48.3897 234.291 48.163 233.531 47.7097C232.784 47.2564 232.204 46.6364 231.791 45.8497V52.1697H230.791V38.1697H231.791V40.4897C232.204 39.703 232.784 39.083 233.531 38.6297C234.291 38.1764 235.144 37.9497 236.091 37.9497ZM233.011 46.1897C233.838 47.0164 234.844 47.4297 236.031 47.4297C237.218 47.4297 238.218 47.0164 239.031 46.1897C239.858 45.363 240.271 44.3564 240.271 43.1697C240.271 41.983 239.858 40.9764 239.031 40.1497C238.218 39.323 237.218 38.9097 236.031 38.9097C234.844 38.9097 233.838 39.323 233.011 40.1497C232.198 40.9764 231.791 41.983 231.791 43.1697C231.791 44.3564 232.198 45.363 233.011 46.1897Z" fill="#F1EFE9"/>
<path d="M224.323 37.9497C225.416 37.9497 226.296 38.2897 226.963 38.9697C227.629 39.6497 227.963 40.603 227.963 41.8297V48.1697H226.963V41.8297C226.963 40.8964 226.716 40.1764 226.223 39.6697C225.743 39.163 225.103 38.9097 224.303 38.9097C223.409 38.9097 222.683 39.2164 222.123 39.8297C221.576 40.443 221.303 41.363 221.303 42.5897V48.1697H220.303V41.8297C220.303 40.8964 220.069 40.1764 219.603 39.6697C219.149 39.163 218.529 38.9097 217.743 38.9097C216.863 38.9097 216.123 39.223 215.523 39.8497C214.936 40.463 214.643 41.3764 214.643 42.5897V48.1697H213.643V38.1697H214.643V39.8897C215.336 38.5964 216.409 37.9497 217.863 37.9497C218.596 37.9497 219.236 38.1297 219.783 38.4897C220.329 38.8364 220.729 39.3364 220.983 39.9897C221.329 39.3097 221.796 38.803 222.383 38.4697C222.983 38.123 223.629 37.9497 224.323 37.9497Z" fill="#F1EFE9"/>
<path d="M205.995 48.3897C204.529 48.3897 203.282 47.8897 202.255 46.8897C201.242 45.8764 200.735 44.6364 200.735 43.1697C200.735 41.703 201.242 40.4697 202.255 39.4697C203.282 38.4564 204.529 37.9497 205.995 37.9497C207.449 37.9497 208.682 38.4564 209.695 39.4697C210.722 40.4697 211.235 41.703 211.235 43.1697C211.235 44.6364 210.722 45.8764 209.695 46.8897C208.682 47.8897 207.449 48.3897 205.995 48.3897ZM202.975 46.1897C203.802 47.0164 204.809 47.4297 205.995 47.4297C207.182 47.4297 208.182 47.0164 208.995 46.1897C209.809 45.363 210.215 44.3564 210.215 43.1697C210.215 41.983 209.809 40.9764 208.995 40.1497C208.182 39.323 207.182 38.9097 205.995 38.9097C204.809 38.9097 203.802 39.323 202.975 40.1497C202.162 40.9764 201.755 41.983 201.755 43.1697C201.755 44.3564 202.162 45.363 202.975 46.1897Z" fill="#F1EFE9"/>
<path d="M193.174 48.3897C191.067 48.3897 189.327 47.6964 187.954 46.3097C186.58 44.9097 185.894 43.1964 185.894 41.1697C185.894 39.143 186.58 37.4364 187.954 36.0497C189.327 34.6497 191.067 33.9497 193.174 33.9497C194.454 33.9497 195.627 34.2564 196.694 34.8697C197.76 35.4697 198.587 36.283 199.174 37.3097L198.234 37.8497C197.767 36.983 197.08 36.2897 196.174 35.7697C195.267 35.2364 194.267 34.9697 193.174 34.9697C191.36 34.9697 189.867 35.5697 188.694 36.7697C187.534 37.9564 186.954 39.423 186.954 41.1697C186.954 42.9164 187.534 44.3897 188.694 45.5897C189.867 46.7764 191.36 47.3697 193.174 47.3697C194.267 47.3697 195.274 47.103 196.194 46.5697C197.114 46.0364 197.807 45.323 198.274 44.4297L199.214 44.9697C198.64 46.0097 197.814 46.843 196.734 47.4697C195.654 48.083 194.467 48.3897 193.174 48.3897Z" fill="#F1EFE9"/>
<path d="M178.762 39.1496H175.782V45.6496C175.782 46.223 175.889 46.6363 176.102 46.8896C176.316 47.143 176.642 47.2896 177.082 47.3296C177.522 47.3563 178.082 47.3363 178.762 47.2696V48.1696C177.416 48.3696 176.409 48.2763 175.742 47.8896C175.089 47.503 174.762 46.7563 174.762 45.6496V39.1496H172.562V38.1696H174.762V35.6696L175.782 35.3696V38.1696H178.762V39.1496Z" fill="#F1EFE9"/>
<path d="M166.934 37.9497C168.12 37.9497 169.06 38.3164 169.754 39.0497C170.46 39.7697 170.814 40.7364 170.814 41.9497V48.1697H169.794V41.9497C169.794 41.0164 169.534 40.2764 169.014 39.7297C168.507 39.183 167.787 38.9097 166.854 38.9097C165.827 38.9097 164.987 39.2497 164.334 39.9297C163.68 40.6097 163.354 41.5964 163.354 42.8897V48.1697H162.354V38.1697H163.354V40.0697C164.074 38.6564 165.267 37.9497 166.934 37.9497Z" fill="#F1EFE9"/>
<path d="M155.076 37.9497C156.542 37.9497 157.729 38.4697 158.636 39.5097C159.556 40.5497 160.016 41.783 160.016 43.2097C160.016 43.263 160.009 43.343 159.996 43.4497C159.996 43.5564 159.996 43.6364 159.996 43.6897H150.936C151.056 44.8097 151.502 45.7164 152.276 46.4097C153.062 47.0897 154.029 47.4297 155.176 47.4297C155.976 47.4297 156.676 47.263 157.276 46.9297C157.876 46.5964 158.329 46.1564 158.636 45.6097L159.516 46.1297C159.102 46.823 158.516 47.3764 157.756 47.7897C156.996 48.1897 156.129 48.3897 155.156 48.3897C153.622 48.3897 152.362 47.903 151.376 46.9297C150.389 45.943 149.896 44.6897 149.896 43.1697C149.896 41.6764 150.376 40.4364 151.336 39.4497C152.309 38.4497 153.556 37.9497 155.076 37.9497ZM155.076 38.9097C153.942 38.9097 152.996 39.263 152.236 39.9697C151.476 40.6764 151.042 41.5897 150.936 42.7097H158.976C158.869 41.523 158.442 40.5964 157.696 39.9297C156.962 39.2497 156.089 38.9097 155.076 38.9097Z" fill="#F1EFE9"/>
<path d="M144.108 37.9497C145.201 37.9497 146.081 38.2897 146.748 38.9697C147.414 39.6497 147.748 40.603 147.748 41.8297V48.1697H146.748V41.8297C146.748 40.8964 146.501 40.1764 146.008 39.6697C145.528 39.163 144.888 38.9097 144.088 38.9097C143.194 38.9097 142.468 39.2164 141.908 39.8297C141.361 40.443 141.088 41.363 141.088 42.5897V48.1697H140.088V41.8297C140.088 40.8964 139.854 40.1764 139.388 39.6697C138.934 39.163 138.314 38.9097 137.528 38.9097C136.648 38.9097 135.908 39.223 135.308 39.8497C134.721 40.463 134.428 41.3764 134.428 42.5897V48.1697H133.428V38.1697H134.428V39.8897C135.121 38.5964 136.194 37.9497 137.648 37.9497C138.381 37.9497 139.021 38.1297 139.568 38.4897C140.114 38.8364 140.514 39.3364 140.768 39.9897C141.114 39.3097 141.581 38.803 142.168 38.4697C142.768 38.123 143.414 37.9497 144.108 37.9497Z" fill="#F1EFE9"/>
<path d="M126.15 37.9497C127.616 37.9497 128.803 38.4697 129.71 39.5097C130.63 40.5497 131.09 41.783 131.09 43.2097C131.09 43.263 131.083 43.343 131.07 43.4497C131.07 43.5564 131.07 43.6364 131.07 43.6897H122.01C122.13 44.8097 122.576 45.7164 123.35 46.4097C124.136 47.0897 125.103 47.4297 126.25 47.4297C127.05 47.4297 127.75 47.263 128.35 46.9297C128.95 46.5964 129.403 46.1564 129.71 45.6097L130.59 46.1297C130.176 46.823 129.59 47.3764 128.83 47.7897C128.07 48.1897 127.203 48.3897 126.23 48.3897C124.696 48.3897 123.436 47.903 122.45 46.9297C121.463 45.943 120.97 44.6897 120.97 43.1697C120.97 41.6764 121.45 40.4364 122.41 39.4497C123.383 38.4497 124.63 37.9497 126.15 37.9497ZM126.15 38.9097C125.016 38.9097 124.07 39.263 123.31 39.9697C122.55 40.6764 122.116 41.5897 122.01 42.7097H130.05C129.943 41.523 129.516 40.5964 128.77 39.9297C128.036 39.2497 127.163 38.9097 126.15 38.9097Z" fill="#F1EFE9"/>
<path d="M117.561 38.1697H118.561V47.6897C118.561 49.143 118.088 50.2897 117.141 51.1297C116.194 51.9697 115.008 52.3897 113.581 52.3897C112.434 52.3897 111.454 52.1764 110.641 51.7497C109.828 51.323 109.234 50.7364 108.861 49.9897L109.741 49.4897C110.381 50.783 111.661 51.4297 113.581 51.4297C114.821 51.4297 115.794 51.0897 116.501 50.4097C117.208 49.743 117.561 48.8364 117.561 47.6897V45.8497C117.148 46.6364 116.561 47.2564 115.801 47.7097C115.054 48.163 114.208 48.3897 113.261 48.3897C111.821 48.3897 110.594 47.8897 109.581 46.8897C108.581 45.8764 108.081 44.6364 108.081 43.1697C108.081 41.703 108.581 40.4697 109.581 39.4697C110.594 38.4564 111.821 37.9497 113.261 37.9497C114.208 37.9497 115.054 38.1764 115.801 38.6297C116.561 39.083 117.148 39.703 117.561 40.4897V38.1697ZM110.301 46.1897C111.128 47.0164 112.134 47.4297 113.321 47.4297C114.508 47.4297 115.508 47.0164 116.321 46.1897C117.148 45.363 117.561 44.3564 117.561 43.1697C117.561 41.983 117.148 40.9764 116.321 40.1497C115.508 39.323 114.508 38.9097 113.321 38.9097C112.134 38.9097 111.128 39.323 110.301 40.1497C109.488 40.9764 109.081 41.983 109.081 43.1697C109.081 44.3564 109.488 45.363 110.301 46.1897Z" fill="#F1EFE9"/>
<path d="M104.59 38.1697H105.61V48.1697H104.59V45.9097C104.164 46.683 103.577 47.2897 102.83 47.7297C102.084 48.1697 101.237 48.3897 100.29 48.3897C98.8637 48.3897 97.6437 47.8897 96.6303 46.8897C95.617 45.8764 95.1104 44.6364 95.1104 43.1697C95.1104 41.703 95.617 40.4697 96.6303 39.4697C97.6437 38.4564 98.8637 37.9497 100.29 37.9497C101.237 37.9497 102.084 38.1697 102.83 38.6097C103.577 39.0497 104.164 39.6564 104.59 40.4297V38.1697ZM97.3503 46.1897C98.177 47.0164 99.1837 47.4297 100.37 47.4297C101.557 47.4297 102.557 47.0164 103.37 46.1897C104.184 45.363 104.59 44.3564 104.59 43.1697C104.59 41.983 104.184 40.9764 103.37 40.1497C102.557 39.323 101.557 38.9097 100.37 38.9097C99.1837 38.9097 98.177 39.323 97.3503 40.1497C96.537 40.9764 96.1303 41.983 96.1303 43.1697C96.1303 44.3564 96.537 45.363 97.3503 46.1897Z" fill="#F1EFE9"/>
<path d="M89.082 37.9497C90.2686 37.9497 91.2086 38.3164 91.902 39.0497C92.6086 39.7697 92.962 40.7364 92.962 41.9497V48.1697H91.942V41.9497C91.942 41.0164 91.6819 40.2764 91.1619 39.7297C90.6553 39.183 89.9353 38.9097 89.002 38.9097C87.9753 38.9097 87.1353 39.2497 86.4819 39.9297C85.8286 40.6097 85.502 41.5964 85.502 42.8897V48.1697H84.502V38.1697H85.502V40.0697C86.222 38.6564 87.4153 37.9497 89.082 37.9497Z" fill="#F1EFE9"/>
<path d="M80.4107 38.1697H81.4307V48.1697H80.4107V45.9097C79.984 46.683 79.3973 47.2897 78.6507 47.7297C77.904 48.1697 77.0573 48.3897 76.1107 48.3897C74.684 48.3897 73.464 47.8897 72.4507 46.8897C71.4373 45.8764 70.9307 44.6364 70.9307 43.1697C70.9307 41.703 71.4373 40.4697 72.4507 39.4697C73.464 38.4564 74.684 37.9497 76.1107 37.9497C77.0573 37.9497 77.904 38.1697 78.6507 38.6097C79.3973 39.0497 79.984 39.6564 80.4107 40.4297V38.1697ZM73.1707 46.1897C73.9973 47.0164 75.004 47.4297 76.1907 47.4297C77.3773 47.4297 78.3773 47.0164 79.1907 46.1897C80.004 45.363 80.4107 44.3564 80.4107 43.1697C80.4107 41.983 80.004 40.9764 79.1907 40.1497C78.3773 39.323 77.3773 38.9097 76.1907 38.9097C75.004 38.9097 73.9973 39.323 73.1707 40.1497C72.3573 40.9764 71.9507 41.983 71.9507 43.1697C71.9507 44.3564 72.3573 45.363 73.1707 46.1897Z" fill="#F1EFE9"/>
<path d="M68.3387 34.1699V48.1699H67.2787V35.7299L62.0987 44.3299H61.9187L56.7387 35.7299V48.1699H55.6787V34.1699H56.9987L61.9987 42.4499L66.9987 34.1699H68.3387Z" fill="#F1EFE9"/>
<path d="M47.7469 39.1496H44.7669V45.6496C44.7669 46.223 44.8735 46.6363 45.0869 46.8896C45.3002 47.143 45.6269 47.2896 46.0669 47.3296C46.5069 47.3563 47.0669 47.3363 47.7469 47.2696V48.1696C46.4002 48.3696 45.3935 48.2763 44.7269 47.8896C44.0735 47.503 43.7469 46.7563 43.7469 45.6496V39.1496H41.5469V38.1696H43.7469V35.6696L44.7669 35.3696V38.1696H47.7469V39.1496Z" fill="#F1EFE9"/>
<path d="M35.6419 37.9497C37.1086 37.9497 38.2952 38.4697 39.2019 39.5097C40.1219 40.5497 40.5819 41.783 40.5819 43.2097C40.5819 43.263 40.5752 43.343 40.5619 43.4497C40.5619 43.5564 40.5619 43.6364 40.5619 43.6897H31.5019C31.6219 44.8097 32.0686 45.7164 32.8419 46.4097C33.6286 47.0897 34.5952 47.4297 35.7419 47.4297C36.5419 47.4297 37.2419 47.263 37.8419 46.9297C38.4419 46.5964 38.8952 46.1564 39.2019 45.6097L40.0819 46.1297C39.6686 46.823 39.0819 47.3764 38.3219 47.7897C37.5619 48.1897 36.6952 48.3897 35.7219 48.3897C34.1886 48.3897 32.9286 47.903 31.9419 46.9297C30.9552 45.943 30.4619 44.6897 30.4619 43.1697C30.4619 41.6764 30.9419 40.4364 31.9019 39.4497C32.8752 38.4497 34.1219 37.9497 35.6419 37.9497ZM35.6419 38.9097C34.5086 38.9097 33.5619 39.263 32.8019 39.9697C32.0419 40.6764 31.6086 41.5897 31.5019 42.7097H39.5419C39.4352 41.523 39.0086 40.5964 38.2619 39.9297C37.5286 39.2497 36.6552 38.9097 35.6419 38.9097Z" fill="#F1EFE9"/>
<path d="M22.9548 40.7897C22.9548 41.283 23.1614 41.6697 23.5748 41.9497C23.9881 42.2297 24.4948 42.443 25.0948 42.5897C25.6948 42.723 26.2881 42.8764 26.8748 43.0497C27.4748 43.223 27.9814 43.5164 28.3948 43.9297C28.8081 44.3297 29.0148 44.8697 29.0148 45.5497C29.0148 46.3764 28.6814 47.0564 28.0148 47.5897C27.3614 48.123 26.5014 48.3897 25.4348 48.3897C24.4748 48.3897 23.6614 48.1897 22.9948 47.7897C22.3414 47.3764 21.8881 46.8364 21.6348 46.1697L22.4948 45.6697C22.6814 46.2164 23.0281 46.6497 23.5348 46.9697C24.0548 47.2764 24.6881 47.4297 25.4348 47.4297C26.1814 47.4297 26.7948 47.2697 27.2748 46.9497C27.7681 46.6164 28.0148 46.1497 28.0148 45.5497C28.0148 45.0564 27.8081 44.663 27.3948 44.3697C26.9814 44.0764 26.4748 43.863 25.8748 43.7297C25.2748 43.583 24.6748 43.423 24.0748 43.2497C23.4881 43.0764 22.9881 42.7897 22.5748 42.3897C22.1614 41.9897 21.9548 41.4564 21.9548 40.7897C21.9548 39.9897 22.2681 39.3164 22.8948 38.7697C23.5348 38.223 24.3548 37.9497 25.3548 37.9497C26.1548 37.9497 26.8481 38.1297 27.4348 38.4897C28.0348 38.8497 28.4748 39.3364 28.7548 39.9497L27.9148 40.4297C27.7148 39.9364 27.3814 39.563 26.9148 39.3097C26.4481 39.043 25.9281 38.9097 25.3548 38.9097C24.6748 38.9097 24.1014 39.083 23.6348 39.4297C23.1814 39.763 22.9548 40.2164 22.9548 40.7897Z" fill="#F1EFE9"/>
<path d="M14.4001 40.7897C14.4001 41.283 14.6067 41.6697 15.0201 41.9497C15.4334 42.2297 15.9401 42.443 16.5401 42.5897C17.1401 42.723 17.7334 42.8764 18.3201 43.0497C18.9201 43.223 19.4267 43.5164 19.8401 43.9297C20.2534 44.3297 20.4601 44.8697 20.4601 45.5497C20.4601 46.3764 20.1267 47.0564 19.4601 47.5897C18.8067 48.123 17.9467 48.3897 16.8801 48.3897C15.9201 48.3897 15.1067 48.1897 14.4401 47.7897C13.7867 47.3764 13.3334 46.8364 13.0801 46.1697L13.9401 45.6697C14.1267 46.2164 14.4734 46.6497 14.9801 46.9697C15.5001 47.2764 16.1334 47.4297 16.8801 47.4297C17.6267 47.4297 18.2401 47.2697 18.7201 46.9497C19.2134 46.6164 19.4601 46.1497 19.4601 45.5497C19.4601 45.0564 19.2534 44.663 18.8401 44.3697C18.4267 44.0764 17.9201 43.863 17.3201 43.7297C16.7201 43.583 16.1201 43.423 15.5201 43.2497C14.9334 43.0764 14.4334 42.7897 14.0201 42.3897C13.6067 41.9897 13.4001 41.4564 13.4001 40.7897C13.4001 39.9897 13.7134 39.3164 14.3401 38.7697C14.9801 38.223 15.8001 37.9497 16.8001 37.9497C17.6001 37.9497 18.2934 38.1297 18.8801 38.4897C19.4801 38.8497 19.9201 39.3364 20.2001 39.9497L19.3601 40.4297C19.1601 39.9364 18.8267 39.563 18.3601 39.3097C17.8934 39.043 17.3734 38.9097 16.8001 38.9097C16.1201 38.9097 15.5467 39.083 15.0801 39.4297C14.6267 39.763 14.4001 40.2164 14.4001 40.7897Z" fill="#F1EFE9"/>
<path d="M10.86 48.1699L9.5 44.6099H2.48L1.12 48.1699H0L5.44 34.1699H6.56L11.98 48.1699H10.86ZM2.88 43.6099H9.12L6 35.4699L2.88 43.6099Z" fill="#F1EFE9"/>
<g clip-path="url(#clip0_223_864)">
<path fill-rule="evenodd" clip-rule="evenodd" d="M88.794 9.49981C89.2229 10.2427 88.5574 11.4464 87.2892 12.3148C88.8219 12.4328 90 13.1425 90 14.0004C90 14.858 88.8225 15.5675 87.2906 15.6858C88.5581 16.5542 89.2229 17.7574 88.7941 18.5C88.3654 19.2428 86.9908 19.2685 85.605 18.6049C86.2686 19.9908 86.243 21.3655 85.5002 21.7943C84.7574 22.2232 83.554 21.5579 82.6856 20.29C82.5674 21.8222 81.8578 23 81.0001 23C80.1425 23 79.4329 21.8224 79.3147 20.2902C78.4463 21.5582 77.2429 22.2233 76.5001 21.7945C75.7572 21.3656 75.7317 19.9904 76.3958 18.6041C75.0096 19.2683 73.6344 19.2427 73.2055 18.4998C72.7768 17.7572 73.4415 16.5542 74.7088 15.6857C73.1772 15.5673 72 14.8579 72 14.0004C72 13.1426 73.1778 12.4331 74.71 12.3149C73.4419 11.4465 72.7766 10.2429 73.2055 9.50003C73.6344 8.75706 75.0097 8.73157 76.396 9.3958C75.7318 8.00949 75.7573 6.63422 76.5002 6.20527C77.243 5.77642 78.4463 6.44156 79.3147 7.70938C79.4331 6.17746 80.1425 5 81.0001 5C81.8577 5 82.5673 6.17759 82.6855 7.70965C83.5539 6.44178 84.7573 5.7766 85.5001 6.20546C86.2429 6.6343 86.2686 8.00897 85.6049 9.39492C86.9907 8.73136 88.3652 8.75708 88.794 9.49981Z" fill="#64714F"/>
</g>
<defs>
<clipPath id="clip0_223_864">
<rect width="18" height="18" fill="white" transform="translate(72 5)"/>
</clipPath>
</defs>
</svg>
