<svg width="60" height="64" viewBox="0 0 60 64" fill="none" xmlns="http://www.w3.org/2000/svg">
<rect width="60" height="64" rx="16" fill="white"/>
<path d="M48.597 26.6927C47.8052 23.0013 45.8648 19.6505 42.986 17.0035L42.2569 17.8189C43.6461 19.0963 44.8058 20.5444 45.7039 22.1231C46.5581 23.6249 47.1746 25.2408 47.5363 26.9266C47.8855 28.5552 47.994 30.2314 47.8586 31.909C47.7251 33.5612 47.3578 35.1868 46.7665 36.7408C45.542 39.9594 43.4345 42.6965 40.6717 44.6553C39.2181 45.6859 37.6012 46.4847 35.8663 47.0296C34.2361 47.5415 32.4985 47.8293 30.6913 47.8877C30.6973 47.3081 30.7033 46.7321 30.7095 46.1589C33.4799 46.0907 36.0609 45.4115 38.1944 44.185C40.4525 42.8869 42.0441 41.0742 42.7974 38.9431C43.3479 37.3853 43.4407 35.6749 43.0733 33.8598C43.0418 33.7046 42.9461 33.5706 42.8101 33.4921C42.6745 33.4137 42.5119 33.3986 42.364 33.4503L40.3385 34.1614C41.4762 33.1044 42.3114 31.8622 42.7974 30.4873C43.3479 28.9295 43.4407 27.2191 43.0733 25.404C43.0418 25.2488 42.9461 25.1147 42.8101 25.0363C42.6745 24.9579 42.5119 24.9428 42.364 24.9945L40.1529 25.7708C39.8919 25.8624 38.5064 26.3641 36.8711 27.2376C35.8571 27.7792 34.9755 28.3416 34.2323 28.9195C34.9636 27.1547 35.2534 25.4893 35.0933 23.9534C34.8946 22.0472 33.2479 19.2179 32.3633 17.6978C32.2282 17.4655 32.1115 17.2649 32.0328 17.1232C31.6844 16.4946 31.3181 15.8675 30.9437 15.259C30.8615 15.1256 30.7272 15.0342 30.5741 15.0078C30.4211 14.9814 30.2645 15.0229 30.1435 15.1212C29.9121 15.3097 24.4875 19.8148 25.4385 26.6129C25.5487 27.401 25.7335 28.1333 25.9684 28.81C25.2559 28.2704 24.4221 27.7448 23.4721 27.2373C21.8368 26.3638 20.4513 25.8622 20.1903 25.7705L17.9792 24.9942C17.8315 24.9425 17.669 24.9576 17.5331 25.036C17.3974 25.1145 17.3013 25.2485 17.2699 25.4037C16.9025 27.2189 16.9953 28.9292 17.5458 30.487C18.0318 31.8619 18.867 33.1041 20.0047 34.1611L17.9792 33.45C17.8315 33.3983 17.669 33.4134 17.5331 33.4919C17.3974 33.5703 17.3013 33.7043 17.2699 33.8595C16.9025 35.6747 16.9953 37.385 17.5458 38.9428C18.2991 41.0742 19.8907 42.8869 22.1488 44.1847C24.2799 45.4099 26.8573 46.089 29.6242 46.1584C29.6182 46.7343 29.612 47.3128 29.606 47.8951C27.6922 47.8602 25.8534 47.5693 24.1342 47.0294C22.399 46.4845 20.7823 45.6856 19.3288 44.655C16.566 42.6962 14.4585 39.9591 13.234 36.7405C12.6427 35.1865 12.2754 33.5609 12.1419 31.9087C12.0065 30.2311 12.1147 28.5549 12.4642 26.9263C12.8256 25.2405 13.4421 23.6246 14.2965 22.1229C15.1947 20.5441 16.3544 19.096 17.7436 17.8186L17.0145 17.0032C14.1356 19.6508 12.1953 23.0013 11.4035 26.6927C11.0315 28.4275 10.9159 30.2129 11.06 31.9989C11.2019 33.756 11.5927 35.4848 12.2211 37.1373C13.5235 40.5612 15.7664 43.4728 18.7066 45.5576C20.2524 46.6537 21.9703 47.5027 23.8129 48.0814C25.7541 48.691 27.8355 49 30 49C32.1644 49 34.2461 48.691 36.187 48.0814C38.0297 47.5027 39.7475 46.6537 41.2933 45.5576C44.2336 43.4728 46.4762 40.561 47.7789 37.1373C48.4076 35.4851 48.798 33.7563 48.9399 31.9989C49.084 30.2129 48.9687 28.4278 48.5964 26.6927H48.597ZM30.7993 37.7009C32.063 37.6638 33.2864 37.4992 34.4453 37.2133C33.7222 37.754 33.1206 38.3088 32.6466 38.8743C31.9083 39.7459 31.2731 40.7151 30.7562 41.7504C30.7581 41.5679 30.76 41.3854 30.7619 41.203C30.7744 40.0384 30.7866 38.8735 30.7991 37.7006L30.7993 37.7009ZM29.6768 41.1912C29.6744 41.4331 29.6717 41.6752 29.6692 41.9174C29.1382 40.8191 28.4748 39.7924 27.6969 38.8743C27.2228 38.3088 26.6213 37.7537 25.8982 37.2133C27.1089 37.5121 28.3899 37.6786 29.7137 37.7056C29.7015 38.8729 29.689 40.0323 29.6768 41.1914V41.1912ZM42.1166 34.7021C42.3098 36.0842 42.1958 37.3833 41.7758 38.5719C41.1115 40.4514 39.6881 42.0613 37.6593 43.2276C35.6905 44.3594 33.2986 44.9891 30.7212 45.0579C30.7217 45.0116 30.7223 44.9651 30.7225 44.9189C31.2351 42.9496 32.184 41.1092 33.4707 39.5904C33.4712 39.5895 33.472 39.5887 33.4726 39.5882C34.3015 38.5989 35.6514 37.5889 37.3768 36.6673C38.9758 35.8131 40.3559 35.3202 40.5078 35.2668L42.1163 34.7021H42.1166ZM37.3768 28.2115C38.9758 27.3573 40.3559 26.8644 40.5081 26.811L42.1166 26.2463C42.3098 27.6283 42.1958 28.9275 41.7758 30.1161C41.1115 31.9956 39.6881 33.6055 37.6593 34.7718C35.7133 35.8904 33.3543 36.5184 30.811 36.5993C30.8126 36.4405 30.8143 36.282 30.8159 36.123C31.3461 34.2822 32.2583 32.5656 33.4707 31.1348C33.4712 31.134 33.472 31.1332 33.4726 31.1326C34.3015 30.1433 35.6514 29.1334 37.3768 28.2118V28.2115ZM26.7846 22.2833C27.0891 21.1685 27.5805 20.0675 28.2455 19.011C29.0213 17.779 29.8567 16.8846 30.3603 16.3986C30.6086 16.8155 30.852 17.2385 31.087 17.6623C31.1713 17.8145 31.2907 18.0195 31.4288 18.2572C32.2117 19.6021 33.8402 22.4005 34.0142 24.069C34.1922 25.7766 33.7244 27.6982 32.6244 29.7806C31.8904 31.1698 30.9689 32.4208 30.2455 33.2535C29.0557 32.1946 26.996 29.9083 26.5133 26.4582C26.3179 25.0622 26.4094 23.6576 26.7846 22.283V22.2833ZM18.5677 30.1158C18.1477 28.9273 18.0337 27.6281 18.2269 26.2461L19.8354 26.8108C19.9873 26.8641 21.3674 27.357 22.9663 28.2112C24.6915 29.1328 26.0417 30.1428 26.8706 31.1321C26.8712 31.1329 26.872 31.1337 26.8725 31.1343C28.1804 32.6778 29.1393 34.5538 29.6459 36.5597C29.6467 36.5627 29.6475 36.5655 29.6483 36.5682C29.6508 36.577 29.6532 36.5858 29.6562 36.5946C29.657 36.5971 29.6575 36.5999 29.6586 36.6026C27.0671 36.5388 24.6622 35.9083 22.6839 34.7709C20.6551 33.6047 19.2316 31.9948 18.5674 30.1153L18.5677 30.1158ZM22.6842 43.2273C20.6554 42.061 19.2319 40.4512 18.5677 38.5716C18.1477 37.3831 18.0337 36.0839 18.2269 34.7019L19.8354 35.2666C19.9873 35.32 21.3674 35.8128 22.9663 36.667C24.6918 37.5886 26.0417 38.5986 26.8706 39.5879C26.8712 39.5887 26.872 39.5895 26.8725 39.5901C28.1725 41.1243 29.1276 42.9871 29.6364 44.9795C29.6361 45.0056 29.6358 45.0317 29.6356 45.0579C27.0527 44.991 24.6562 44.3608 22.6839 43.227L22.6842 43.2273Z" fill="#2E8C2C"/>
</svg>
