<svg width="171" height="59" viewBox="0 0 171 59" fill="none" xmlns="http://www.w3.org/2000/svg">
<g clip-path="url(#clip0_5136_3569)">
<path d="M46.6888 0.0117188H11.4922L0 11.5039V46.7005L11.4922 58.1927H46.6888L58.181 46.7005V11.5039L46.6888 0.0117188ZM51.0217 29.9821L39.2762 31.822L48.5286 39.2879C48.022 40.1678 48.1553 39.9278 47.6487 40.8078L36.5564 36.5282L40.836 47.6204C39.9561 48.127 40.1828 47.9937 39.3162 48.5003L31.8502 39.2479L30.0104 50.9934H28.2506L26.4108 39.2479L18.9448 48.5003C18.0649 47.9937 18.2916 48.127 17.425 47.6204L21.6912 36.5282L10.6123 40.8078C10.1057 39.9278 10.239 40.1678 9.73239 39.2879L18.9848 31.822L7.2393 29.9821V28.2223L18.9848 26.3825L9.73239 18.9165C10.239 18.0366 10.1057 18.2766 10.6123 17.3967L21.6912 21.6763L17.425 10.584C18.2916 10.0774 18.0649 10.2107 18.9448 9.70411L26.4108 18.9565L28.2506 7.21102H30.0104L31.8502 18.9565L39.3162 9.70411C40.1828 10.2107 39.9561 10.0774 40.836 10.584L36.5564 21.6763L47.6487 17.3967C48.1553 18.2766 48.022 18.0366 48.5286 18.9165L39.2762 26.3825L51.0217 28.2223V29.9821Z" fill="white"/>
<path d="M75.7793 30.9297V35.9425H83.2319V52.9409H88.9913V35.9425H96.4439V30.9297H75.7793Z" fill="white"/>
<path d="M105.55 35.6074C100.164 35.6074 96.2041 39.0604 96.2041 44.4732C96.2041 49.886 100.164 53.3524 105.55 53.3524C110.936 53.3524 114.896 49.8994 114.896 44.4732C114.896 39.0471 110.936 35.6074 105.55 35.6074ZM105.55 47.9929C103.377 47.9929 101.964 46.673 101.964 44.4732C101.964 42.2734 103.377 40.9536 105.55 40.9536C107.723 40.9536 109.136 42.2734 109.136 44.4732C109.136 46.673 107.71 47.9929 105.55 47.9929Z" fill="white"/>
<path d="M124.415 37.8088V36.009H118.615V52.9407H124.415V43.7816C124.801 42.2617 126.241 41.4351 127.801 41.4351C128.348 41.4351 129.108 41.5018 129.561 41.6085V35.5957C127.494 35.5957 125.695 36.4223 124.415 37.8088Z" fill="white"/>
<path d="M140.346 37.8087V37.462C140.346 35.2222 141.44 34.2223 143.653 34.2223V28.7695C143.159 28.7695 142.679 28.7962 142.226 28.8495C139.906 29.0895 138.04 29.9294 136.747 31.3026C135.32 32.7691 134.547 34.8623 134.547 37.462V37.8087H132.134V43.1948H134.547V52.9405H140.346V43.1948H144.026V37.8087H140.346Z" fill="white"/>
<path d="M94.6975 3.27734L88.4847 18.9425H88.0714L81.8587 3.27734H75.7793V4.55722L84.7918 25.7018H91.7644L100.59 4.55722V3.27734H94.6975Z" fill="white"/>
<path d="M110.043 8.03711C104.55 8.03711 100.523 11.5568 100.523 17.0762C100.523 22.5957 104.55 26.1154 110.043 26.1154C115.535 26.1154 119.562 22.5957 119.562 17.0762C119.562 11.5568 115.522 8.03711 110.043 8.03711ZM110.043 20.6625C107.829 20.6625 106.376 19.316 106.376 17.0762C106.376 14.8364 107.829 13.4899 110.043 13.4899C112.256 13.4899 113.695 14.8364 113.695 17.0762C113.695 19.316 112.256 20.6625 110.043 20.6625Z" fill="white"/>
<path d="M122.788 1.55859V25.7029H128.588V1.55859H122.788Z" fill="white"/>
<path d="M144.639 8.45117L141.093 18.4902H140.88L137.08 8.45117H131.121V9.55773L137.467 25.5695C136.88 25.8095 135.987 25.8761 134.667 25.8761V31.3956C135.427 31.3956 136.12 31.3689 136.747 31.3023C139.466 31.0223 141.12 30.1691 142.226 28.8492C142.973 28.0093 143.493 26.9694 143.946 25.7695L150.199 9.55773V8.45117H144.639Z" fill="white"/>
<path d="M163.571 8.03711C161.491 8.03711 159.704 8.8637 158.424 10.2502V8.4504H152.625V25.7021H158.424V16.9029C158.491 14.7698 159.731 13.4899 161.797 13.4899C163.637 13.4899 164.77 14.9431 164.77 16.8363V25.7021H170.57V16.7696C170.57 12.0101 168.837 8.03711 163.571 8.03711Z" fill="white"/>
</g>
<defs>
<clipPath id="clip0_5136_3569">
<rect width="170.57" height="58.2047" fill="white"/>
</clipPath>
</defs>
</svg>
